PathFileType  4	(X/Y/Z) C:\Users\HPL 1\Documents/Temp/Sub278498/Files_W_HJCs/
DataRate	CameraRate	NumFrames	NumMarkers	Units	OrigDataRate	OrigDataStartFrame	OrigNumFrames
50.0	50.0	4	42	mm	50.0	286	571
Frame#	Time  	r_knee			r_shank(antsup)			r_ankle			r_calc			r_5meta			r_toe			L_knee			L_shank(ant_sup)			L_ankle			L_calc			L_5meta			L_toe			r_mknee			r_mankle			L_mknee			L_mankle			r_sh2			r_sh3			r_sh4			L_sh2			L_sh3			r_thigh1			r_thigh2			r_thigh3			r_thigh4			r_thigh5			L_thigh1			L_thigh2			L_thigh3			L_thigh4			r.ASIS			r.PSIS			L.ASIS			L.PSIS			C7			R_Shoulder			L_Shoulder			Sternum			R_HJC			L_HJC			R_HJC_reg			L_HJC_reg			
		X1	Y1	Z1	X2	Y2	Z2	X3	Y3	Z3	X4	Y4	Z4	X5	Y5	Z5	X6	Y6	Z6	X7	Y7	Z7	X8	Y8	Z8	X9	Y9	Z9	X10	Y10	Z10	X11	Y11	Z11	X12	Y12	Z12	X13	Y13	Z13	X14	Y14	Z14	X15	Y15	Z15	X16	Y16	Z16	X17	Y17	Z17	X18	Y18	Z18	X19	Y19	Z19	X20	Y20	Z20	X21	Y21	Z21	X22	Y22	Z22	X23	Y23	Z23	X24	Y24	Z24	X25	Y25	Z25	X26	Y26	Z26	X27	Y27	Z27	X28	Y28	Z28	X29	Y29	Z29	X30	Y30	Z30	X31	Y31	Z31	X32	Y32	Z32	X33	Y33	Z33	X34	Y34	Z34	X35	Y35	Z35	X36	Y36	Z36	X37	Y37	Z37	X38	Y38	Z38	X39	Y39	Z39	X40	Y40	Z40	X41	Y41	Z41	X42	Y42	Z42	

286	5.70000	573.42834	785.28546	-407.99301	532.54114	718.32288	-361.85260	239.68423	517.56317	-202.24712	137.99657	528.92548	-241.15874	270.30249	405.94501	-128.22432	315.30548	377.85562	-190.21376	744.21100	566.71869	-867.48260	774.32318	448.49005	-855.52393	696.47119	108.95044	-812.39587	620.66302	71.70815	-755.40625	814.06317	41.54424	-849.24976	860.53467	69.61765	-792.51184	548.65283	709.41833	-509.23212	239.40759	473.69962	-288.31201	769.65576	569.34924	-745.35742	726.38232	122.75597	-722.70074	451.37018	652.10400	-304.18283	479.35950	771.67120	-370.32388	395.98816	714.16010	-312.95111	685.58374	465.27750	-874.39612	675.80798	343.97925	-859.68445	774.11365	1012.90704	-539.43573	727.17987	921.00696	-487.99548	672.78455	918.81488	-470.39230	669.25684	1054.33594	-550.23297	624.88647	956.16101	-503.05594	815.99408	834.42432	-919.36365	824.51031	697.45111	-901.68652	700.10522	826.63098	-927.29401	712.49768	695.15808	-896.78412	864.98407	1148.64954	-668.27625	678.60724	1187.30481	-767.12347	843.17700	1071.13110	-915.39642	673.43121	1156.24915	-843.10809	790.30304	1629.93237	-872.23218	831.59869	1612.74072	-710.51166	839.04297	1562.51331	-1050.06873	912.95068	1529.75244	-865.72198	778.83982	1076.35489	-652.50294	763.56335	1002.82186	-876.61839	775.58709	1089.92079	-677.58444	764.79186	1025.15045	-836.05957
287	5.72000	567.40387	794.66925	-403.57263	524.55176	728.94440	-356.85760	224.63774	540.11884	-196.90329	123.01552	553.88550	-236.89113	250.62723	428.98590	-120.61899	295.34811	398.40811	-181.72060	742.61023	566.85394	-867.41553	773.02441	448.79959	-855.53870	696.27100	108.84950	-812.72119	620.52826	71.61169	-755.56854	814.06647	41.60496	-849.10718	860.41711	69.71900	-792.36157	542.46136	716.70447	-503.70026	223.20499	494.56570	-281.91006	767.85956	569.42902	-745.28613	726.14233	122.93336	-722.94611	440.92575	666.37866	-298.97455	473.07224	783.97040	-367.09250	387.56366	729.72986	-309.14676	684.35040	465.43506	-874.55634	674.69830	344.17145	-859.74841	772.17102	1016.40857	-538.46216	723.30627	926.15076	-485.51700	668.96991	926.17664	-468.09589	667.95703	1058.69788	-551.27820	622.10181	962.47223	-502.12823	814.93024	834.20874	-919.20538	823.09039	697.16693	-901.21185	699.06897	826.91888	-926.77454	711.03326	695.60950	-896.39600	865.57007	1149.06921	-668.32556	680.07428	1189.38513	-768.02765	843.49445	1070.57776	-915.22003	674.49231	1157.59668	-843.75415	792.09192	1630.02502	-873.03571	833.31799	1612.71448	-711.30127	840.97833	1562.67981	-1050.97571	914.66254	1529.89636	-866.49860	778.64490	1077.82511	-652.47934	763.11592	1003.24808	-876.23217	775.63741	1092.23739	-677.36836	764.00073	1025.96830	-835.23471
288	5.74000	561.71698	803.15662	-399.93781	516.83978	738.76208	-352.35025	210.08180	561.49896	-192.26617	109.50166	577.39075	-233.15768	235.78140	450.76492	-114.27833	277.54623	418.20099	-174.75005	741.08923	567.11176	-867.33240	771.82520	449.19589	-855.53223	696.10394	108.79433	-813.04211	620.44556	71.53489	-755.69812	814.09766	41.63165	-848.99414	860.25299	69.85643	-792.17102	536.07941	723.84271	-499.08780	208.33788	514.70935	-276.68073	765.82025	569.60461	-745.08081	725.76379	123.01776	-723.22522	431.08255	679.72253	-294.39655	467.47726	795.34192	-363.75687	379.73932	744.64343	-306.07037	683.16675	465.83936	-874.61133	673.62793	344.29141	-860.03918	770.55438	1019.39575	-537.57892	721.15765	930.66534	-483.74081	665.73120	932.03204	-466.23810	667.01398	1062.93787	-551.74359	619.41589	968.55066	-501.24271	813.91949	834.08368	-918.76733	821.45160	697.10565	-900.93494	697.94806	827.38367	-926.46686	709.33105	695.95154	-896.07910	866.16492	1149.29553	-668.48639	681.67578	1191.16870	-768.91779	844.05920	1070.11780	-914.96356	675.63275	1158.97058	-844.37854	793.86847	1630.09546	-873.77502	834.79956	1612.72156	-711.99084	842.88098	1562.88757	-1051.66760	916.59656	1530.09534	-867.14612	778.55274	1079.05219	-652.52982	762.89434	1003.68689	-876.00934	776.02793	1094.04293	-677.27640	763.43106	1026.92502	-834.57651
289	5.76000	556.54871	811.02454	-396.66547	509.71112	748.50671	-348.80530	197.99889	580.96588	-187.99249	98.02138	598.67188	-229.73398	218.52214	471.04886	-108.06754	261.58752	436.45541	-167.75145	739.66119	567.48706	-867.35474	770.83325	449.69788	-855.58325	695.86786	108.74338	-813.34882	620.33606	71.47041	-755.83136	814.22131	41.79859	-848.82886	860.10291	70.00348	-791.95074	529.34009	730.86786	-495.18152	195.19377	533.67944	-271.87277	763.98267	569.77948	-744.73792	725.43665	123.15655	-723.54834	422.41745	692.23578	-290.38733	462.03809	805.85626	-361.15338	372.86047	758.12274	-303.32114	682.30139	466.24133	-874.38263	672.95953	344.74832	-859.94568	769.10211	1022.02551	-536.75891	717.09613	934.32013	-482.31522	662.65454	937.25909	-464.60486	666.25073	1066.96008	-551.90692	616.93085	973.80481	-500.17508	813.13312	834.02655	-918.17181	820.23535	696.97314	-900.06873	697.01074	827.57019	-926.20154	708.38403	696.05347	-895.75067	866.78351	1149.34082	-668.69293	682.81702	1192.93066	-769.39539	843.66577	1069.15271	-914.83301	676.67200	1160.11279	-844.53815	795.78204	1630.08813	-874.41357	836.40607	1612.68115	-712.56805	844.93079	1562.97156	-1052.22827	918.50500	1530.15503	-867.67041	778.43874	1080.20704	-652.37031	761.85819	1003.82732	-875.43854	775.60089	1095.53954	-677.42342	762.78153	1027.07696	-834.18152
